<svg width="920" height="520" viewBox="0 0 920 520" fill="none" xmlns="http://www.w3.org/2000/svg" role="img" aria-labelledby="title desc">
  <title id="title">AI Usage Widget screenshot</title>
  <desc id="desc">Floating desktop widget showing usage bars for Codex, Claude Code and Gemini.</desc>
  <rect width="920" height="520" fill="#10151d"/>
  <radialGradient id="glowA" cx="0" cy="0" r="1" gradientUnits="userSpaceOnUse" gradientTransform="translate(130 80) rotate(37) scale(520 340)">
    <stop stop-color="#264c57" stop-opacity="0.75"/>
    <stop offset="1" stop-color="#10151d" stop-opacity="0"/>
  </radialGradient>
  <radialGradient id="glowB" cx="0" cy="0" r="1" gradientUnits="userSpaceOnUse" gradientTransform="translate(790 430) rotate(160) scale(520 300)">
    <stop stop-color="#3b3320" stop-opacity="0.7"/>
    <stop offset="1" stop-color="#10151d" stop-opacity="0"/>
  </radialGradient>
  <rect width="920" height="520" fill="url(#glowA)"/>
  <rect width="920" height="520" fill="url(#glowB)"/>

  <g filter="url(#shadow)">
    <rect x="190" y="72" width="540" height="374" rx="24" fill="#111820"/>
    <rect x="190.75" y="72.75" width="538.5" height="372.5" rx="23.25" stroke="#2d3a47" stroke-width="1.5"/>
  </g>

  <rect x="214" y="96" width="492" height="48" rx="14" fill="#17212b"/>
  <text x="238" y="126" fill="#f5f7fb" font-family="ui-sans-serif, system-ui, -apple-system, Segoe UI, sans-serif" font-size="18" font-weight="700">AI Usage Widget</text>
  <circle cx="585" cy="120" r="13" fill="#22303d"/>
  <text x="580" y="126" fill="#8fa1b2" font-family="ui-sans-serif, system-ui, -apple-system, Segoe UI, sans-serif" font-size="17" font-weight="700">i</text>
  <circle cx="622" cy="120" r="13" fill="#22303d"/>
  <path d="M622 112v16M614 120h16" stroke="#8fa1b2" stroke-width="2" stroke-linecap="round"/>
  <circle cx="659" cy="120" r="13" fill="#22303d"/>
  <path d="M652 120h14" stroke="#8fa1b2" stroke-width="2" stroke-linecap="round"/>
  <circle cx="690" cy="120" r="13" fill="#34242a"/>
  <path d="M685 115l10 10M695 115l-10 10" stroke="#ff8a9a" stroke-width="2" stroke-linecap="round"/>

  <g transform="translate(214 166)">
    <rect width="492" height="76" rx="16" fill="#17212b"/>
    <text x="20" y="29" fill="#f5f7fb" font-family="ui-sans-serif, system-ui, -apple-system, Segoe UI, sans-serif" font-size="16" font-weight="700">Codex</text>
    <text x="416" y="29" fill="#4fc978" font-family="ui-sans-serif, system-ui, -apple-system, Segoe UI, sans-serif" font-size="16" font-weight="700">61%</text>
    <text x="455" y="29" fill="#8fa1b2" font-family="ui-sans-serif, system-ui, -apple-system, Segoe UI, sans-serif" font-size="13">20:45</text>
    <rect x="20" y="46" width="452" height="10" rx="5" fill="#26323d"/>
    <rect x="20" y="46" width="276" height="10" rx="5" fill="#4fc978"/>
  </g>

  <g transform="translate(214 258)">
    <rect width="492" height="76" rx="16" fill="#17212b"/>
    <text x="20" y="29" fill="#f5f7fb" font-family="ui-sans-serif, system-ui, -apple-system, Segoe UI, sans-serif" font-size="16" font-weight="700">Claude Code</text>
    <text x="416" y="29" fill="#e5d85c" font-family="ui-sans-serif, system-ui, -apple-system, Segoe UI, sans-serif" font-size="16" font-weight="700">42%</text>
    <text x="455" y="29" fill="#8fa1b2" font-family="ui-sans-serif, system-ui, -apple-system, Segoe UI, sans-serif" font-size="13">14:20</text>
    <rect x="20" y="46" width="452" height="10" rx="5" fill="#26323d"/>
    <rect x="20" y="46" width="190" height="10" rx="5" fill="#e5d85c"/>
  </g>

  <g transform="translate(214 350)">
    <rect width="492" height="76" rx="16" fill="#17212b"/>
    <text x="20" y="29" fill="#f5f7fb" font-family="ui-sans-serif, system-ui, -apple-system, Segoe UI, sans-serif" font-size="16" font-weight="700">Gemini</text>
    <text x="378" y="29" fill="#4fc978" font-family="ui-sans-serif, system-ui, -apple-system, Segoe UI, sans-serif" font-size="16" font-weight="700">88%</text>
    <text x="419" y="29" fill="#8fa1b2" font-family="ui-sans-serif, system-ui, -apple-system, Segoe UI, sans-serif" font-size="13">24h reset</text>
    <rect x="20" y="46" width="452" height="10" rx="5" fill="#26323d"/>
    <rect x="20" y="46" width="398" height="10" rx="5" fill="#4fc978"/>
  </g>

  <text x="460" y="472" text-anchor="middle" fill="#6f7f8f" font-family="ui-sans-serif, system-ui, -apple-system, Segoe UI, sans-serif" font-size="13">Local CLI usage. No external quota APIs.</text>

  <defs>
    <filter id="shadow" x="160" y="48" width="600" height="434" filterUnits="userSpaceOnUse" color-interpolation-filters="sRGB">
      <feFlood flood-opacity="0" result="BackgroundImageFix"/>
      <feColorMatrix in="SourceAlpha" type="matrix" values="0 0 0 0 0 0 0 0 0 0 0 0 0 0 0 0 0 0 127 0" result="hardAlpha"/>
      <feOffset dy="10"/>
      <feGaussianBlur stdDeviation="15"/>
      <feComposite in2="hardAlpha" operator="out"/>
      <feColorMatrix type="matrix" values="0 0 0 0 0 0 0 0 0 0 0 0 0 0 0 0 0 0 0.35 0"/>
      <feBlend mode="normal" in2="BackgroundImageFix" result="effect1_dropShadow"/>
      <feBlend mode="normal" in="SourceGraphic" in2="effect1_dropShadow" result="shape"/>
    </filter>
  </defs>
</svg>
